<?xml version="1.0" encoding="UTF-8"?>
<svg version="1.1" xmlns="http://www.w3.org/2000/svg" width="470" height="472">
<path d="M0 0 C155.1 0 310.2 0 470 0 C470 155.76 470 311.52 470 472 C314.9 472 159.8 472 0 472 C0 316.24 0 160.48 0 0 Z " fill="#12294A" transform="translate(0,0)"/>
<path d="M0 0 C1.66675781 0.77150391 1.66675781 0.77150391 3.3671875 1.55859375 C23.95551137 11.85275568 39.96614826 30.57211358 47.34960938 52.3659668 C50.28080819 61.70201107 51.15454357 70.26375525 51 80 C49.01761259 76.5265125 48.26011633 73.07125811 47.375 69.1875 C44.20974725 56.54669935 37.69297553 45.65504397 29 36 C28.11441406 34.97519531 28.11441406 34.97519531 27.2109375 33.9296875 C13.66011845 19.22560725 -5.67492651 11.78964107 -25.28515625 10.75 C-43.95281337 10.0743475 -61.35534805 15.59991612 -75.6953125 27.84765625 C-89.7945354 41.01489661 -97.4718939 55.93941057 -100 75 C-99.31035156 75.25523437 -98.62070313 75.51046875 -97.91015625 75.7734375 C-95.24308849 76.89754391 -92.76558043 78.19603239 -90.24536133 79.61376953 C-51.48950411 101.29192761 -2.80707879 109.92842892 41 102 C42.21816406 101.81695312 43.43632812 101.63390625 44.69140625 101.4453125 C84.181148 94.9898754 121.27526034 76.53994613 151 50 C151.8559375 49.26523438 152.711875 48.53046875 153.59375 47.7734375 C159.64693092 42.50563765 165.05768128 36.76187309 170.43359375 30.8203125 C172.24996913 28.82423483 174.06390842 26.87702438 176 25 C171.37901955 61.41608478 151.24663659 95.94946698 126.46484375 122.34765625 C124.50451132 124.45711064 122.63945317 126.58945942 120.8125 128.8125 C117.55463893 132.63774137 113.86713563 135.80357071 110 139 C109.48824219 139.42941895 108.97648437 139.85883789 108.44921875 140.30126953 C88.00600988 157.40189626 65.63398921 170.15704318 40.52587891 179.09130859 C38.78718139 179.71680948 37.05531828 180.36153206 35.32958984 181.02197266 C28.84506881 183.48122062 22.41266908 185.22354159 15.625 186.625 C14.11619263 186.94355957 14.11619263 186.94355957 12.5769043 187.26855469 C-44.51791147 199.15275192 -104.0624595 189.17853127 -153.30908203 157.53881836 C-164.28679107 150.29427354 -174.47188304 142.06729765 -184 133 C-184.58507324 132.44747559 -185.17014648 131.89495117 -185.77294922 131.32568359 C-199.69312722 118.09853935 -211.5562928 103.78045185 -221 87 C-221.3928418 86.30712891 -221.78568359 85.61425781 -222.19042969 84.90039062 C-230.74299423 69.68852717 -236.60995567 54.15802001 -241.5 37.4375 C-241.76780273 36.52629395 -242.03560547 35.61508789 -242.31152344 34.67626953 C-242.5490332 33.83306152 -242.78654297 32.98985352 -243.03125 32.12109375 C-243.24330078 31.3727124 -243.45535156 30.62433105 -243.67382812 29.85327148 C-244 28 -244 28 -243 26 C-242.40574219 27.0415625 -241.81148437 28.083125 -241.19921875 29.15625 C-229.52236684 49.42856235 -216.24252367 68.14320323 -200 85 C-199.41557129 85.61166016 -198.83114258 86.22332031 -198.22900391 86.85351562 C-190.2184951 95.20303718 -182.0008833 102.87614095 -172.68554688 109.75 C-171.07109239 110.94727795 -169.48019716 112.17612883 -167.890625 113.40625 C-131.33537682 141.22174854 -84.87289465 156.68810979 -39.06689453 156.39111328 C-36.13396454 156.3750491 -33.20241965 156.39105746 -30.26953125 156.41015625 C20.74844913 156.46508597 69.20902007 137.40510429 109 106 C109.55751953 105.56107422 110.11503906 105.12214844 110.68945312 104.66992188 C125.51181931 92.87326349 138.83391358 79.29595592 150 64 C150.836521 62.86618896 150.836521 62.86618896 151.68994141 61.70947266 C154.59613583 57.76642254 157.48727283 53.81236393 160.34765625 49.8359375 C160.81179932 49.19188965 161.27594238 48.5478418 161.75415039 47.88427734 C163.01060396 45.9839621 164.02517039 44.05692757 165 42 C163.83597656 43.38058594 163.83597656 43.38058594 162.6484375 44.7890625 C151.74923709 57.60663141 140.41202079 69.76403285 127 80 C126.17943115 80.63518555 126.17943115 80.63518555 125.34228516 81.28320312 C115.70620308 88.71407918 105.66592336 95.14805465 95 101 C94.34950684 101.35690918 93.69901367 101.71381836 93.02880859 102.08154297 C81.78152182 108.16061724 70.00871925 112.66593526 58 117 C57.31550781 117.25410645 56.63101562 117.50821289 55.92578125 117.77001953 C45.16379319 121.76138572 34.2733157 124.04800156 23 126 C22.16678223 126.15243164 21.33356445 126.30486328 20.47509766 126.46191406 C-4.71258529 130.98465876 -30.82194462 130.14151296 -56 126 C-56.82677246 125.86609863 -57.65354492 125.73219727 -58.50537109 125.59423828 C-86.53682022 120.85239995 -112.23732141 109.56815161 -137 96 C-137.68043166 78.05754054 -135.81854262 63.37079013 -128 47 C-127.57074219 46.10023438 -127.14148438 45.20046875 -126.69921875 44.2734375 C-114.90068555 21.20813599 -94.57189909 4.60413432 -70.44921875 -4.3125 C-67.31736036 -5.31351702 -64.18618377 -6.19067525 -61 -7 C-60.22140625 -7.22429687 -59.4428125 -7.44859375 -58.640625 -7.6796875 C-39.19424659 -12.57481034 -17.81077127 -8.2790728 0 0 Z " fill="#FAFBFC" transform="translate(269,171)"/>
<path d="M0 0 C4.12326498 1.7409341 6.69835882 4.16393137 9 8 C9.62495824 13.6246242 9.15907697 17.14856037 6 22 C2.75953856 24.93666818 0.06485065 25.89954239 -4.3125 26.3125 C-9.61064075 25.86350502 -12.45790324 23.79911289 -15.875 19.8125 C-17.48942639 15.77643403 -17.92637226 12.27444209 -17 8 C-12.61463832 0.78494011 -8.1771005 -0.78079953 0 0 Z " fill="#ECF0F4" transform="translate(240,301)"/>
<path d="M0 0 C2 0 2 0 3.5859375 1.57421875 C4.17632812 2.27160156 4.76671875 2.96898437 5.375 3.6875 C5.99375 4.41582031 6.6125 5.14414063 7.25 5.89453125 C14.4927676 14.60848602 14.4927676 14.60848602 14 22 C12.40093249 26.15757553 10.85311765 28.7122114 7 31 C1.71776236 32.76074588 -2.37685861 32.79625804 -7.3125 30.375 C-11.32644277 26.82779476 -12.7029631 23.8152255 -13.5625 18.5625 C-12.80858578 13.78770991 -10.92015706 10.85720775 -7 8 C-3.125 7.5625 -3.125 7.5625 0 8 C-0.66 8.639375 -1.32 9.27875 -2 9.9375 C-4.60035861 13.91929912 -4.78749723 17.33911524 -4 22 C-2.12061828 24.29827312 -2.12061828 24.29827312 0.9375 24.3125 C3.89963083 24.20549058 3.89963083 24.20549058 5.875 23 C7.78395238 19.60630689 7.85278433 16.69150478 7 13 C5.34882187 9.68121411 3.50850221 6.57597871 1.53125 3.44140625 C0 1 0 1 0 0 Z " fill="#EDF0F4" transform="translate(234,127)"/>
<path d="M0 0 C3.32878632 2.46040728 4.79301948 3.89610387 5.5625 8 C4.84202557 11.8425303 3.99097304 13.45767292 1 16 C-2.99893269 16.94237143 -5.98105682 16.61136591 -9.5 14.5 C-11.61136591 10.98105682 -11.94237143 7.99893269 -11 4 C-7.75032314 0.17685075 -4.94151119 -0.92653335 0 0 Z " fill="#142644" transform="translate(239,303)"/>
<path d="M0 0 C0.33 0.66 0.66 1.32 1 2 C-3.47743179 8.95318819 -8.16918509 15.69442862 -13.125 22.3125 C-13.61516602 22.96927734 -14.10533203 23.62605469 -14.61035156 24.30273438 C-17.91292906 28.68113478 -21.38401795 32.87714187 -25 37 C-25 36.01 -25 35.02 -25 34 C-25.33 33.34 -25.66 32.68 -26 32 C-26.99 32.495 -26.99 32.495 -28 33 C-26.67508811 30.04229956 -25.25948032 28.04286081 -22.91015625 25.8203125 C-22.295354 25.22742432 -21.68055176 24.63453613 -21.04711914 24.02368164 C-20.39219482 23.3971167 -19.73727051 22.77055176 -19.0625 22.125 C-11.99535285 15.23536361 -5.87011256 7.92038057 0 0 Z M-20 25 C-21.0260734 26.31337396 -22.02727325 27.64664105 -23 29 C-22.01 29 -21.02 29 -20 29 C-19.67 27.68 -19.34 26.36 -19 25 C-19.33 25 -19.66 25 -20 25 Z " fill="#111B36" transform="translate(435,210)"/>
<path d="M0 0 C0.99 0.66 1.98 1.32 3 2 C0.59757773 5.17462943 -1.61713276 7.85751741 -5 10 C-5.66 10 -6.32 10 -7 10 C-7.2475 10.78375 -7.495 11.5675 -7.75 12.375 C-9.20780864 15.43639814 -10.07993473 15.58706519 -13 17 C-13.80528889 19.05000871 -13.80528889 19.05000871 -14 21 C-14.66 21 -15.32 21 -16 21 C-13.06699099 12.60500992 -6.34837858 6.03095965 0 0 Z " fill="#162240" transform="translate(193,198)"/>
<path d="M0 0 C0.47308594 0.34933594 0.94617188 0.69867188 1.43359375 1.05859375 C6.60032163 4.61386654 10.74807789 5.84080754 17 6 C17 6.33 17 6.66 17 7 C13.31251691 7.02925502 9.62506408 7.04688418 5.9375 7.0625 C4.89916016 7.07087891 3.86082031 7.07925781 2.79101562 7.08789062 C-2.58723069 7.10496442 -7.70333211 6.95415152 -13 6 C-13 5.67 -13 5.34 -13 5 C-7.72 5 -2.44 5 3 5 C2.01 4.01 1.02 3.02 0 2 C0 1.34 0 0.68 0 0 Z " fill="#09142D" transform="translate(224,321)"/>
<path d="M0 0 C-3.4092219 7.34293948 -3.4092219 7.34293948 -7.875 9.1875 C-10.57594567 9.88974587 -13.25225196 10.51510329 -16 11 C-14.33857487 9.66014102 -12.66998649 8.32917292 -11 7 C-10.25234375 6.39800781 -9.5046875 5.79601562 -8.734375 5.17578125 C-7.93515625 4.54027344 -7.1359375 3.90476562 -6.3125 3.25 C-5.54550781 2.63640625 -4.77851563 2.0228125 -3.98828125 1.390625 C-2 0 -2 0 0 0 Z " fill="#1B2842" transform="translate(372,316)"/>
<path d="M0 0 C1.09658936 3.28976808 0.79953138 4.71303767 0 8 C-0.66 7.34 -1.32 6.68 -2 6 C-3.65 8.97 -5.3 11.94 -7 15 C-8 12 -8 12 -7.4375 9.75 C-5.48499554 6.01477407 -2.83581242 3.09442424 0 0 Z " fill="#BEC5CF" transform="translate(444,196)"/>
<path d="M0 0 C0.33 0.66 0.66 1.32 1 2 C-2.96 7.94 -2.96 7.94 -7 14 C-7.99 13.34 -8.98 12.68 -10 12 C-9.44570313 11.38511719 -8.89140625 10.77023438 -8.3203125 10.13671875 C-7.59585937 9.32847656 -6.87140625 8.52023438 -6.125 7.6875 C-5.40570313 6.88699219 -4.68640625 6.08648437 -3.9453125 5.26171875 C-1.88394498 2.95810917 -1.88394498 2.95810917 0 0 Z " fill="#2B2F3F" transform="translate(435,210)"/>
<path d="M0 0 C0.66 0 1.32 0 2 0 C2.639375 0.804375 3.27875 1.60875 3.9375 2.4375 C5.81035932 5.23720732 5.81035932 5.23720732 9 6 C10.75 8.9375 10.75 8.9375 12 12 C11.67 12.66 11.34 13.32 11 14 C9.53618641 12.42173185 8.07914837 10.83717771 6.625 9.25 C5.81289062 8.36828125 5.00078125 7.4865625 4.1640625 6.578125 C2.3374152 4.40197479 1.10212006 2.59179881 0 0 Z " fill="#19243C" transform="translate(236,127)"/>
<path d="M0 0 C0.33 0 0.66 0 1 0 C1.77040851 6.06696699 2.09706112 11.88514973 2 18 C0.42445965 15.11371599 -0.46276373 12.46657616 -1.125 9.25 C-1.29257812 8.45078125 -1.46015625 7.6515625 -1.6328125 6.828125 C-1.75398438 6.22484375 -1.87515625 5.6215625 -2 5 C-1.34 5 -0.68 5 0 5 C0 3.35 0 1.7 0 0 Z " fill="#D4DDE5" transform="translate(318,233)"/>
<path d="M0 0 C2 3 2 3 1.625 5.1875 C1.41875 5.785625 1.2125 6.38375 1 7 C-2.51716303 7 -3.37121748 6.17554415 -6 4 C-4.02 4 -2.04 4 0 4 C0 2.68 0 1.36 0 0 Z " fill="#36445F" transform="translate(235,130)"/>
</svg>
